<svg width="53" height="40" viewBox="0 0 53 40" fill="none" xmlns="http://www.w3.org/2000/svg">
<path d="M3.79811 4.1794H8.40096V9.86945C8.40096 11.1967 8.04794 13.5405 6.29713 13.5405C4.44749 13.5405 3.14853 10.293 1.9766 10.293C1.42598 10.293 1.22825 10.9708 1.22825 11.3943C1.22825 11.8462 1.35535 12.1709 1.58128 12.538C7.27133 21.3061 18.242 34.3241 27.9279 38.4751C30.1305 39.4211 32.6296 40 35.0298 40C40.0281 40 43.6708 37.5715 46.5229 33.6463C47.4689 32.3474 48.7396 30.8507 50.4904 30.8507C51.6341 30.8507 52.1424 31.2743 52.7918 32.1497L52.7637 32.0509C51.7612 29.8765 48.9655 26.7562 46.3959 26.7562C43.7415 26.7562 42.0189 30.9496 40.1693 32.6015C37.6984 34.8041 34.4509 35.8489 31.133 35.8489C28.055 35.8489 24.864 34.9736 22.2096 33.3781C15.87 29.6506 10.2223 23.9041 6.77718 17.4091C7.20077 17.508 7.62435 17.5644 8.04794 17.5644C10.2929 17.5644 12.3967 15.8843 12.5661 13.5687C12.6226 12.6368 12.5661 11.6626 12.5661 10.7166V4.17933H17.8891L14.091 0H0L3.79811 4.1794ZM19.541 6.84979e-05H11.719L15.5171 4.1794H16.3219V21.4049L20.5153 24.8077V8.17517C20.5153 6.19844 21.2918 4.60299 23.3815 4.1794L19.541 6.84979e-05Z" fill="white"/>
</svg>
