<svg width="74" height="56" viewBox="0 0 74 56" fill="none" xmlns="http://www.w3.org/2000/svg">
<path d="M5.28796 5.85117H11.6963V13.8172C11.6963 15.6753 11.2048 18.9566 8.76724 18.9566C6.19206 18.9566 4.38357 14.4102 2.75194 14.4102C1.98534 14.4102 1.71005 15.3591 1.71005 15.9521C1.71005 16.5847 1.887 17.0392 2.20155 17.5532C10.1236 29.8285 25.3976 48.0537 38.8829 53.8652C41.9495 55.1896 45.429 56 48.7706 56C55.7295 56 60.8011 52.6001 64.772 47.1049C66.089 45.2863 67.8582 43.191 70.2958 43.191C71.8881 43.191 72.5958 43.784 73.5 45.0096L73.4607 44.8713C72.065 41.8271 68.1728 37.4586 64.5952 37.4586C60.8995 37.4586 58.5013 43.3294 55.9261 45.6421C52.486 48.7257 47.9647 50.1885 43.3452 50.1885C39.0599 50.1885 34.6171 48.963 30.9215 46.7293C22.0952 41.5108 14.2321 33.4657 9.4356 24.3728C10.0253 24.5112 10.6151 24.5902 11.2048 24.5902C14.3304 24.5902 17.2594 22.238 17.4953 18.9961C17.5739 17.6916 17.4953 16.3276 17.4953 15.0032V5.85106H24.9063L19.6184 0H0L5.28796 5.85117ZM27.2062 9.58971e-05H16.3158L21.6038 5.85117H22.7243V29.9669L28.5626 34.7308V11.4452C28.5626 8.67781 29.6438 6.44419 32.5532 5.85117L27.2062 9.58971e-05Z" fill="#EC5A53"/>
</svg>
