<svg width="32" height="32" viewBox="0 0 32 32" fill="none" xmlns="http://www.w3.org/2000/svg">
<path d="M18.0499 15.7536C18.0499 20.772 14.0093 24.8403 9.02511 24.8403C4.04097 24.8403 0 20.772 0 15.7536C0 10.7351 4.04067 6.6665 9.02511 6.6665C14.0096 6.6665 18.0499 10.7351 18.0499 15.7536Z" fill="black"/>
<path d="M27.9504 15.753C27.9504 20.4768 25.9301 24.3078 23.4379 24.3078C20.9456 24.3078 18.9253 20.4768 18.9253 15.753C18.9253 11.0292 20.9453 7.19824 23.4375 7.19824C25.9298 7.19824 27.9501 11.028 27.9501 15.753" fill="black"/>
<path d="M32 15.7536C32 19.9849 31.2896 23.4173 30.4129 23.4173C29.5363 23.4173 28.8262 19.9859 28.8262 15.7536C28.8262 11.5213 29.5366 8.08984 30.4129 8.08984C31.2893 8.08984 32 11.5209 32 15.7536Z" fill="black"/>
</svg>
